<?xml version="1.0" encoding="UTF-8" standalone="no"?>
<!-- Created with Inkscape (http://www.inkscape.org/) -->

<svg
   xmlns:dc="http://purl.org/dc/elements/1.1/"
   xmlns:cc="http://creativecommons.org/ns#"
   xmlns:rdf="http://www.w3.org/1999/02/22-rdf-syntax-ns#"
   xmlns:svg="http://www.w3.org/2000/svg"
   xmlns="http://www.w3.org/2000/svg"
   xmlns:sodipodi="http://sodipodi.sourceforge.net/DTD/sodipodi-0.dtd"
   xmlns:inkscape="http://www.inkscape.org/namespaces/inkscape"
   width="210mm"
   height="297mm"
   viewBox="0 0 210 297"
   version="1.1"
   id="svg8"
   inkscape:version="0.92.0 r15299"
   sodipodi:docname="doodles.svg">
  <defs
     id="defs2" />
  <sodipodi:namedview
     id="base"
     pagecolor="#ffffff"
     bordercolor="#666666"
     borderopacity="1.0"
     inkscape:pageopacity="0.0"
     inkscape:pageshadow="2"
     inkscape:zoom="8"
     inkscape:cx="47.727236"
     inkscape:cy="1041.1572"
     inkscape:document-units="mm"
     inkscape:current-layer="layer1"
     showgrid="true"
     inkscape:window-width="3176"
     inkscape:window-height="1748"
     inkscape:window-x="10"
     inkscape:window-y="38"
     inkscape:window-maximized="0">
    <inkscape:grid
       type="xygrid"
       id="grid29" />
  </sodipodi:namedview>
  <metadata
     id="metadata5">
    <rdf:RDF>
      <cc:Work
         rdf:about="">
        <dc:format>image/svg+xml</dc:format>
        <dc:type
           rdf:resource="http://purl.org/dc/dcmitype/StillImage" />
        <dc:title></dc:title>
      </cc:Work>
    </rdf:RDF>
  </metadata>
  <g
     inkscape:label="Layer 1"
     inkscape:groupmode="layer"
     id="layer1">
    <rect
       style="fill:#fdb6d2;fill-opacity:1;stroke:none;stroke-width:0.26458332"
       id="rect176"
       width="12.170834"
       height="7.1437497"
       x="0.79374999"
       y="21.304167" />
    <path
       style="fill:#000000;stroke:none;stroke-width:0.26458332px;stroke-linecap:butt;stroke-linejoin:miter;stroke-opacity:1"
       d="m 1.3229166,2.7833332 v 3.175 H 2.38125 l 0,-2.1166665 h 0.5291667 l 0,2.1166665 H 3.96875 V 3.8416667 h 0.5291667 v 2.1166665 l 1.0583333,10e-8 v -3.175 l -4.2333334,-10e-8 v 0"
       id="path31"
       inkscape:connector-curvature="0"
       sodipodi:nodetypes="cccccccccccccc" />
    <path
       style="fill:#000000;stroke:none;stroke-width:0.99999994px;stroke-linecap:butt;stroke-linejoin:miter;stroke-opacity:1"
       d="M 22 10.519531 L 22 22.519531 L 26 22.519531 L 26 18.519531 L 30 18.519531 L 30 22.519531 L 34 22.519531 L 34 10.519531 L 22 10.519531 z M 26 13.519531 L 30 13.519531 L 30 15.519531 L 26 15.519531 L 26 13.519531 z "
       transform="scale(0.26458333)"
       id="path33" />
    <path
       style="fill:#000000;stroke:none;stroke-width:0.99999994px;stroke-linecap:butt;stroke-linejoin:miter;stroke-opacity:1"
       d="M 43 10.519531 L 43 12.519531 L 35 12.519531 L 35 22.519531 L 47 22.519531 L 47 10.519531 L 43 10.519531 z M 39 16.519531 L 43 16.519531 L 43 18.519531 L 39 18.519531 L 39 16.519531 z "
       transform="scale(0.26458333)"
       id="path35" />
    <path
       style="fill:#000000;stroke:none;stroke-width:0.26458332px;stroke-linecap:butt;stroke-linejoin:miter;stroke-opacity:1"
       d="m 1.3229166,6.4874999 0,1.5875 2.6458334,10e-8 0,-1.5875 -0.5291666,1e-7 0,1.0583333 H 2.9104167 l 0,-1.0583333 H 2.3812501 l 0,1.0583333 -0.5291668,-1e-7 0,-1.0583333 z"
       id="path37"
       inkscape:connector-curvature="0"
       sodipodi:nodetypes="ccccccccccccc" />
    <path
       style="fill:#000000;stroke:none;stroke-width:0.99999994px;stroke-linecap:butt;stroke-linejoin:miter;stroke-opacity:1"
       d="m 16,24.519531 0,6.000154 h 6 l 0,-6.000154 z m 2,2 h 2 l 0,2.000154 h -2 z"
       transform="scale(0.26458333)"
       id="path39"
       inkscape:connector-curvature="0"
       sodipodi:nodetypes="cccccccccc" />
    <path
       sodipodi:nodetypes="ccccccccccccc"
       inkscape:connector-curvature="0"
       id="path41"
       d="m 8.73125,8.075 1e-7,-1.5874999 -2.6458334,-1e-7 -10e-8,1.5874999 0.5291666,-10e-8 10e-8,-1.0583332 H 7.14375 l -10e-8,1.0583332 h 0.5291666 l 10e-8,-1.0583332 0.5291668,1e-7 -10e-8,1.0583332 z"
       style="fill:#000000;stroke:none;stroke-width:0.26458332px;stroke-linecap:butt;stroke-linejoin:miter;stroke-opacity:1" />
    <path
       id="path46"
       d="M 8.9958337,6.7520833 V 8.075 H 10.583333 V 6.7520833 L 10.054167,6.4875 V 6.7520833 Z M 9.5250003,7.28125 H 10.054167 V 7.5458333 H 9.5250003 Z"
       style="fill:#000000;stroke:none;stroke-width:0.26458332px;stroke-linecap:butt;stroke-linejoin:miter;stroke-opacity:1"
       inkscape:connector-curvature="0"
       sodipodi:nodetypes="cccccccccccc" />
    <path
       style="fill:#000000;stroke:none;stroke-width:0.26458332px;stroke-linecap:butt;stroke-linejoin:miter;stroke-opacity:1"
       d="m 10.847917,6.4875 0,1.5875001 0.529166,-1e-7 0,-1.0583334 h 0.529167 l 0,1.0583334 h 0.529167 l 0,-1.5875 z"
       id="path48"
       inkscape:connector-curvature="0"
       sodipodi:nodetypes="ccccccccc" />
    <path
       sodipodi:nodetypes="cccccccccccccc"
       inkscape:connector-curvature="0"
       id="path58"
       d="m 17.197917,2.7833333 v 3.175 H 18.25625 V 3.8416668 h 0.529167 V 5.9583333 H 19.84375 V 3.8416668 h 0.529167 v 2.1166665 l 1.058333,1e-7 v -3.175 l -4.233333,-1e-7 v 0"
       style="fill:#000000;stroke:none;stroke-width:0.26458332px;stroke-linecap:butt;stroke-linejoin:miter;stroke-opacity:1" />
    <path
       id="path60"
       d="m 21.695833,2.7832927 v 3.1749999 h 1.058334 V 4.8999593 H 23.8125 v 1.0583333 h 1.058333 V 2.7832927 Z m 1.058334,0.79375 H 23.8125 v 0.5291666 h -1.058333 z"
       style="fill:#000000;stroke:none;stroke-width:0.26458332px;stroke-linecap:butt;stroke-linejoin:miter;stroke-opacity:1"
       inkscape:connector-curvature="0"
       sodipodi:nodetypes="cccccccccccccc" />
    <path
       id="path62"
       d="m 27.252083,2.2541667 v 0.5291666 h -2.116666 l 0,3.1749593 h 3.175 l 0,-3.7041259 z m -1.058333,1.5875 h 1.058333 l 0,1.0582926 H 26.19375 Z"
       style="fill:#000000;stroke:none;stroke-width:0.26458332px;stroke-linecap:butt;stroke-linejoin:miter;stroke-opacity:1"
       inkscape:connector-curvature="0"
       sodipodi:nodetypes="cccccccccccc" />
    <path
       sodipodi:nodetypes="ccccccccccccc"
       inkscape:connector-curvature="0"
       id="path64"
       d="M 17.197917,6.4875 V 8.075 l 2.645833,1e-7 v -1.5875 l -0.529167,1e-7 V 7.5458335 H 18.785417 V 6.4875002 H 18.25625 v 1.0583333 l -0.529167,-10e-8 V 6.4875001 Z"
       style="fill:#000000;stroke:none;stroke-width:0.26458332px;stroke-linecap:butt;stroke-linejoin:miter;stroke-opacity:1" />
    <path
       sodipodi:nodetypes="cccccccccc"
       inkscape:connector-curvature="0"
       id="path66"
       d="M 20.108333,6.4874593 V 8.075 h 1.5875 V 6.4874593 Z M 20.6375,7.016626 h 0.529167 V 7.5458334 H 20.6375 Z"
       style="fill:#000000;stroke:none;stroke-width:0.26458332px;stroke-linecap:butt;stroke-linejoin:miter;stroke-opacity:1" />
    <path
       style="fill:#000000;stroke:none;stroke-width:0.26458332px;stroke-linecap:butt;stroke-linejoin:miter;stroke-opacity:1"
       d="M 24.60625,8.0750001 V 6.4875002 l -2.645833,-1e-7 V 8.075 l 0.529166,-10e-8 V 7.0166667 h 0.529167 v 1.0583332 h 0.529167 V 7.0166667 l 0.529166,1e-7 V 8.075 Z"
       id="path68"
       inkscape:connector-curvature="0"
       sodipodi:nodetypes="ccccccccccccc" />
    <path
       sodipodi:nodetypes="cccccccccccc"
       inkscape:connector-curvature="0"
       style="fill:#000000;stroke:none;stroke-width:0.26458332px;stroke-linecap:butt;stroke-linejoin:miter;stroke-opacity:1"
       d="m 24.870834,6.7520834 v 1.3229167 h 1.587499 V 6.7520834 L 25.929167,6.4875001 V 6.7520834 Z M 25.4,7.2812501 h 0.529167 V 7.5458334 H 25.4 Z"
       id="path70" />
    <path
       sodipodi:nodetypes="ccccccccc"
       inkscape:connector-curvature="0"
       id="path72"
       d="m 26.722917,6.4875001 v 1.5875001 l 0.529166,-10e-8 V 7.0166667 h 0.529167 v 1.0583334 h 0.529167 v -1.5875 z"
       style="fill:#000000;stroke:none;stroke-width:0.26458332px;stroke-linecap:butt;stroke-linejoin:miter;stroke-opacity:1" />
    <path
       style="fill:#000000;stroke:none;stroke-width:0.26458332px;stroke-linecap:butt;stroke-linejoin:miter;stroke-opacity:1"
       d="m 64.822917,2.7833333 v 3.175 H 65.88125 V 3.8416668 h 0.529167 V 5.9583333 H 67.46875 V 3.8416668 h 0.529167 v 2.1166665 l 1.058333,1e-7 v -3.175 l -4.233333,-1e-7 v 0"
       id="path74"
       inkscape:connector-curvature="0"
       sodipodi:nodetypes="cccccccccccccc" />
    <path
       sodipodi:nodetypes="cccccccccccccc"
       inkscape:connector-curvature="0"
       style="fill:#000000;stroke:none;stroke-width:0.26458332px;stroke-linecap:butt;stroke-linejoin:miter;stroke-opacity:1"
       d="m 69.320833,2.7832927 v 3.1749999 h 1.058334 V 4.8999593 H 71.4375 v 1.0583333 h 1.058333 V 2.7832927 Z m 1.058334,0.79375 H 71.4375 v 0.5291666 h -1.058333 z"
       id="path76" />
    <path
       sodipodi:nodetypes="cccccccccccccc"
       inkscape:connector-curvature="0"
       style="fill:#000000;stroke:none;stroke-width:0.26458332px;stroke-linecap:butt;stroke-linejoin:miter;stroke-opacity:1"
       d="m 75.141667,2.7833333 h -2.38125 v 3.1749593 l 1.058333,4.07e-5 V 5.69375 l 0.796113,0.2645426 h 1.320554 V 3.0479167 Z M 73.81875,3.8416667 h 1.058333 V 4.8999593 H 73.81875 Z"
       id="path78" />
    <path
       style="fill:#000000;stroke:none;stroke-width:0.26458332px;stroke-linecap:butt;stroke-linejoin:miter;stroke-opacity:1"
       d="M 64.822917,6.4875 V 8.075 l 2.645833,1e-7 v -1.5875 l -0.529167,1e-7 V 7.5458335 H 66.410417 V 6.4875002 H 65.88125 v 1.0583333 l -0.529167,-10e-8 V 6.4875001 Z"
       id="path80"
       inkscape:connector-curvature="0"
       sodipodi:nodetypes="ccccccccccccc" />
    <path
       style="fill:#000000;stroke:none;stroke-width:0.26458332px;stroke-linecap:butt;stroke-linejoin:miter;stroke-opacity:1"
       d="M 67.733333,6.4874593 V 8.075 h 1.5875 V 6.4874593 Z M 68.2625,7.016626 h 0.529167 V 7.5458334 H 68.2625 Z"
       id="path82"
       inkscape:connector-curvature="0"
       sodipodi:nodetypes="cccccccccc" />
    <path
       sodipodi:nodetypes="ccccccccccccc"
       inkscape:connector-curvature="0"
       id="path84"
       d="M 72.23125,8.0750001 V 6.4875002 l -2.645833,-1e-7 V 8.075 l 0.529166,-10e-8 V 7.0166667 h 0.529167 v 1.0583332 h 0.529167 V 7.0166667 l 0.529166,1e-7 V 8.075 Z"
       style="fill:#000000;stroke:none;stroke-width:0.26458332px;stroke-linecap:butt;stroke-linejoin:miter;stroke-opacity:1" />
    <path
       id="path86"
       d="m 72.495834,6.7520834 v 1.3229167 h 1.587499 V 6.7520834 L 73.554167,6.4875001 V 6.7520834 Z M 73.025,7.2812501 h 0.529167 V 7.5458334 H 73.025 Z"
       style="fill:#000000;stroke:none;stroke-width:0.26458332px;stroke-linecap:butt;stroke-linejoin:miter;stroke-opacity:1"
       inkscape:connector-curvature="0"
       sodipodi:nodetypes="cccccccccccc" />
    <path
       style="fill:#000000;stroke:none;stroke-width:0.26458332px;stroke-linecap:butt;stroke-linejoin:miter;stroke-opacity:1"
       d="m 74.347917,6.4875001 v 1.5875001 l 0.529166,-10e-8 V 7.0166667 h 0.529167 v 1.0583334 h 0.529167 v -1.5875 z"
       id="path88"
       inkscape:connector-curvature="0"
       sodipodi:nodetypes="ccccccccc" />
    <path
       sodipodi:nodetypes="cccccccccccccc"
       inkscape:connector-curvature="0"
       id="path90"
       d="m 48.947917,2.7833333 v 3.175 H 50.00625 V 3.8416668 h 0.529167 V 5.9583333 H 51.59375 V 3.8416668 h 0.529167 v 2.1166665 l 1.058333,1e-7 v -3.175 l -4.233333,-1e-7 v 0"
       style="fill:#000000;stroke:none;stroke-width:0.26458332px;stroke-linecap:butt;stroke-linejoin:miter;stroke-opacity:1" />
    <path
       id="path92"
       d="m 53.445833,2.7832927 v 3.1749999 h 1.058334 V 4.8999593 H 55.5625 v 1.0583333 h 1.058333 V 2.7832927 Z m 1.058334,0.79375 H 55.5625 v 0.5291666 h -1.058333 z"
       style="fill:#000000;stroke:none;stroke-width:0.26458332px;stroke-linecap:butt;stroke-linejoin:miter;stroke-opacity:1"
       inkscape:connector-curvature="0"
       sodipodi:nodetypes="cccccccccccccc" />
    <path
       id="path94"
       d="m 56.885417,2.7833333 v 3.1749593 h 3.175 l 0,-3.1749593 z m 1.058333,1.0583334 h 1.058333 V 4.8999593 H 57.94375 Z"
       style="fill:#000000;stroke:none;stroke-width:0.26458332px;stroke-linecap:butt;stroke-linejoin:miter;stroke-opacity:1"
       inkscape:connector-curvature="0"
       sodipodi:nodetypes="cccccccccc" />
    <path
       sodipodi:nodetypes="ccccccccccccc"
       inkscape:connector-curvature="0"
       id="path96"
       d="M 48.947917,6.4875 V 8.075 l 2.645833,1e-7 v -1.5875 l -0.529167,1e-7 V 7.5458335 H 50.535417 V 6.4875002 H 50.00625 v 1.0583333 l -0.529167,-10e-8 V 6.4875001 Z"
       style="fill:#000000;stroke:none;stroke-width:0.26458332px;stroke-linecap:butt;stroke-linejoin:miter;stroke-opacity:1" />
    <path
       sodipodi:nodetypes="cccccccccc"
       inkscape:connector-curvature="0"
       id="path98"
       d="M 51.858333,6.4874593 V 8.075 h 1.5875 V 6.4874593 Z M 52.3875,7.016626 h 0.529167 V 7.5458334 H 52.3875 Z"
       style="fill:#000000;stroke:none;stroke-width:0.26458332px;stroke-linecap:butt;stroke-linejoin:miter;stroke-opacity:1" />
    <path
       style="fill:#000000;stroke:none;stroke-width:0.26458332px;stroke-linecap:butt;stroke-linejoin:miter;stroke-opacity:1"
       d="M 56.35625,8.0750001 V 6.4875002 l -2.645833,-1e-7 V 8.075 l 0.529166,-10e-8 V 7.0166667 h 0.529167 v 1.0583332 h 0.529167 V 7.0166667 l 0.529166,1e-7 V 8.075 Z"
       id="path100"
       inkscape:connector-curvature="0"
       sodipodi:nodetypes="ccccccccccccc" />
    <path
       sodipodi:nodetypes="cccccccccccc"
       inkscape:connector-curvature="0"
       style="fill:#000000;stroke:none;stroke-width:0.26458332px;stroke-linecap:butt;stroke-linejoin:miter;stroke-opacity:1"
       d="m 56.620834,6.7520834 v 1.3229167 h 1.587499 V 6.7520834 L 57.679167,6.4875001 V 6.7520834 Z M 57.15,7.2812501 h 0.529167 V 7.5458334 H 57.15 Z"
       id="path102" />
    <path
       sodipodi:nodetypes="ccccccccc"
       inkscape:connector-curvature="0"
       id="path104"
       d="m 58.472917,6.4875001 v 1.5875001 l 0.529166,-10e-8 V 7.0166667 h 0.529167 v 1.0583334 h 0.529167 v -1.5875 z"
       style="fill:#000000;stroke:none;stroke-width:0.26458332px;stroke-linecap:butt;stroke-linejoin:miter;stroke-opacity:1" />
    <path
       style="fill:#000000;stroke:none;stroke-width:0.26458332px;stroke-linecap:butt;stroke-linejoin:miter;stroke-opacity:1"
       d="m 33.072917,2.7833333 v 3.175 H 34.13125 V 3.8416668 h 0.529167 V 5.9583333 H 35.71875 V 3.8416668 h 0.529167 v 2.1166665 l 1.058333,1e-7 v -3.175 l -4.233333,-1e-7 v 0"
       id="path108"
       inkscape:connector-curvature="0"
       sodipodi:nodetypes="cccccccccccccc" />
    <path
       sodipodi:nodetypes="cccccccccccc"
       inkscape:connector-curvature="0"
       style="fill:#000000;stroke:none;stroke-width:0.26458332px;stroke-linecap:butt;stroke-linejoin:miter;stroke-opacity:1"
       d="m 37.570833,2.7832927 v 3.1749999 h 3.175 V 2.7832927 l -1.058333,-0.529126 0.0083,0.529126 z m 1.058334,1.058374 H 39.6875 l 0,1.0583333 h -1.058333 z"
       id="path110" />
    <path
       sodipodi:nodetypes="cccccccccccc"
       inkscape:connector-curvature="0"
       style="fill:#000000;stroke:none;stroke-width:0.26458332px;stroke-linecap:butt;stroke-linejoin:miter;stroke-opacity:1"
       d="m 43.127083,2.2541667 v 0.5291666 h -2.116666 v 3.1749593 h 3.175 V 2.2541667 Z m -1.058333,1.5875 h 1.058333 V 4.8999593 H 42.06875 Z"
       id="path112" />
    <path
       style="fill:#000000;stroke:none;stroke-width:0.26458332px;stroke-linecap:butt;stroke-linejoin:miter;stroke-opacity:1"
       d="M 33.072917,6.4875 V 8.075 l 2.645833,1e-7 v -1.5875 l -0.529167,1e-7 V 7.5458335 H 34.660417 V 6.4875002 H 34.13125 v 1.0583333 l -0.529167,-10e-8 V 6.4875001 Z"
       id="path114"
       inkscape:connector-curvature="0"
       sodipodi:nodetypes="ccccccccccccc" />
    <path
       style="fill:#000000;stroke:none;stroke-width:0.26458332px;stroke-linecap:butt;stroke-linejoin:miter;stroke-opacity:1"
       d="M 35.983333,6.4874593 V 8.075 h 1.5875 V 6.4874593 Z M 36.5125,7.016626 h 0.529167 V 7.5458334 H 36.5125 Z"
       id="path116"
       inkscape:connector-curvature="0"
       sodipodi:nodetypes="cccccccccc" />
    <path
       sodipodi:nodetypes="ccccccccccccc"
       inkscape:connector-curvature="0"
       id="path118"
       d="M 40.48125,8.0750001 V 6.4875002 l -2.645833,-1e-7 V 8.075 l 0.529166,-10e-8 V 7.0166667 h 0.529167 v 1.0583332 h 0.529167 V 7.0166667 l 0.529166,1e-7 V 8.075 Z"
       style="fill:#000000;stroke:none;stroke-width:0.26458332px;stroke-linecap:butt;stroke-linejoin:miter;stroke-opacity:1" />
    <path
       id="path120"
       d="m 40.745834,6.7520834 v 1.3229167 h 1.587499 V 6.7520834 L 41.804167,6.4875001 V 6.7520834 Z M 41.275,7.2812501 h 0.529167 V 7.5458334 H 41.275 Z"
       style="fill:#000000;stroke:none;stroke-width:0.26458332px;stroke-linecap:butt;stroke-linejoin:miter;stroke-opacity:1"
       inkscape:connector-curvature="0"
       sodipodi:nodetypes="cccccccccccc" />
    <path
       style="fill:#000000;stroke:none;stroke-width:0.26458332px;stroke-linecap:butt;stroke-linejoin:miter;stroke-opacity:1"
       d="m 42.597917,6.4875001 v 1.5875001 l 0.529166,-10e-8 V 7.0166667 h 0.529167 v 1.0583334 h 0.529167 v -1.5875 z"
       id="path122"
       inkscape:connector-curvature="0"
       sodipodi:nodetypes="ccccccccc" />
    <path
       sodipodi:nodetypes="cccccccccccccc"
       inkscape:connector-curvature="0"
       id="path124"
       d="m 33.072917,13.895834 0,2.645833 h 1.058333 l 0,-1.5875 h 0.529167 l 0,1.5875 h 1.058333 l 0,-1.5875 h 0.529167 l 0,1.5875 h 1.058333 l 0,-2.645833 h -4.233333 v 0"
       style="fill:#000000;stroke:none;stroke-width:0.26458332px;stroke-linecap:butt;stroke-linejoin:miter;stroke-opacity:1" />
    <path
       id="path126"
       d="m 37.570833,13.895793 0,2.645833 h 3.175 l 0,-2.645833 -1.058333,-0.529126 0.0083,0.529126 z m 1.058334,1.058374 H 39.6875 l 0,0.529166 h -1.058333 z"
       style="fill:#000000;stroke:none;stroke-width:0.26458332px;stroke-linecap:butt;stroke-linejoin:miter;stroke-opacity:1"
       inkscape:connector-curvature="0"
       sodipodi:nodetypes="cccccccccccc" />
    <path
       id="path128"
       d="m 43.127083,12.8375 0,1.058334 h -2.116666 l 0,2.645792 h 3.175 V 12.8375 Z m -1.058333,2.116667 h 1.058333 l 0,0.529126 H 42.06875 Z"
       style="fill:#000000;stroke:none;stroke-width:0.26458332px;stroke-linecap:butt;stroke-linejoin:miter;stroke-opacity:1"
       inkscape:connector-curvature="0"
       sodipodi:nodetypes="cccccccccccc" />
    <path
       sodipodi:nodetypes="ccccccccccccc"
       inkscape:connector-curvature="0"
       id="path130"
       d="m 33.072917,17.070833 v 1.5875 h 2.645833 v -1.5875 h -0.529167 v 1.058334 H 34.660417 V 17.070833 H 34.13125 v 1.058334 h -0.529167 v -1.058334 z"
       style="fill:#000000;stroke:none;stroke-width:0.26458332px;stroke-linecap:butt;stroke-linejoin:miter;stroke-opacity:1" />
    <path
       sodipodi:nodetypes="cccccccccc"
       inkscape:connector-curvature="0"
       id="path132"
       d="m 35.983333,17.070793 v 1.58754 h 1.5875 v -1.58754 z m 0.529167,0.529166 h 0.529167 v 0.529208 H 36.5125 Z"
       style="fill:#000000;stroke:none;stroke-width:0.26458332px;stroke-linecap:butt;stroke-linejoin:miter;stroke-opacity:1" />
    <path
       style="fill:#000000;stroke:none;stroke-width:0.26458332px;stroke-linecap:butt;stroke-linejoin:miter;stroke-opacity:1"
       d="m 40.48125,18.658333 v -1.5875 h -2.645833 v 1.5875 h 0.529166 V 17.6 h 0.529167 v 1.058333 h 0.529167 V 17.6 h 0.529166 v 1.058333 z"
       id="path134"
       inkscape:connector-curvature="0"
       sodipodi:nodetypes="ccccccccccccc" />
    <path
       sodipodi:nodetypes="cccccccccccc"
       inkscape:connector-curvature="0"
       style="fill:#000000;stroke:none;stroke-width:0.26458332px;stroke-linecap:butt;stroke-linejoin:miter;stroke-opacity:1"
       d="m 40.745834,17.335417 v 1.322916 h 1.587499 v -1.322916 l -0.529166,-0.264584 v 0.264584 z M 41.275,17.864583 h 0.529167 v 0.264584 H 41.275 Z"
       id="path136" />
    <path
       sodipodi:nodetypes="ccccccccc"
       inkscape:connector-curvature="0"
       id="path138"
       d="m 42.597917,17.070833 v 1.5875 h 0.529166 V 17.6 h 0.529167 v 1.058333 h 0.529167 v -1.5875 z"
       style="fill:#000000;stroke:none;stroke-width:0.26458332px;stroke-linecap:butt;stroke-linejoin:miter;stroke-opacity:1" />
    <path
       sodipodi:nodetypes="cccccccccccccc"
       inkscape:connector-curvature="0"
       id="path140"
       d="m 1.3229166,13.895833 10e-8,2.645834 h 1.0583334 l -10e-8,-1.5875 h 0.5291667 l 1e-7,1.5875 h 1.0583333 l -10e-8,-1.5875 h 0.5291667 l 10e-8,1.5875 h 1.0583333 l -10e-8,-2.645834 H 1.3229166 v 0"
       style="fill:#000000;stroke:none;stroke-width:0.26458332px;stroke-linecap:butt;stroke-linejoin:miter;stroke-opacity:1" />
    <path
       id="path142"
       d="m 5.8208334,13.895834 -10e-8,2.645792 h 1.0583333 l 1e-7,-0.529126 h 1.0583334 l -1e-7,0.529126 h 1.0583333 l 1e-7,-2.645792 z m 1.0583333,0.793749 H 7.9375001 V 15.21875 H 6.8791667 Z"
       style="fill:#000000;stroke:none;stroke-width:0.26458332px;stroke-linecap:butt;stroke-linejoin:miter;stroke-opacity:1"
       inkscape:connector-curvature="0"
       sodipodi:nodetypes="cccccccccccccc" />
    <path
       id="path144"
       d="m 11.377084,12.572917 -10e-7,1.322876 H 9.2604166 v 2.645833 h 3.1749994 l 10e-7,-3.968709 z m -1.058334,2.381209 h 1.058333 v 0.529167 H 10.31875 Z"
       style="fill:#000000;stroke:none;stroke-width:0.26458332px;stroke-linecap:butt;stroke-linejoin:miter;stroke-opacity:1"
       inkscape:connector-curvature="0"
       sodipodi:nodetypes="cccccccccccc" />
    <path
       sodipodi:nodetypes="ccccccccccccc"
       inkscape:connector-curvature="0"
       id="path146"
       d="m 1.3229167,17.070834 v 1.5875 h 2.6458334 v -1.5875 H 3.4395835 v 1.058333 H 2.9104168 V 17.070834 H 2.3812502 v 1.058333 H 1.8520834 v -1.058333 z"
       style="fill:#000000;stroke:none;stroke-width:0.26458332px;stroke-linecap:butt;stroke-linejoin:miter;stroke-opacity:1" />
    <path
       sodipodi:nodetypes="cccccccccc"
       inkscape:connector-curvature="0"
       id="path148"
       d="m 4.2333333,17.070793 v 1.587541 h 1.5875 V 17.070793 Z M 4.7625,17.59996 h 0.5291667 v 0.529207 H 4.7625 Z"
       style="fill:#000000;stroke:none;stroke-width:0.26458332px;stroke-linecap:butt;stroke-linejoin:miter;stroke-opacity:1" />
    <path
       style="fill:#000000;stroke:none;stroke-width:0.26458332px;stroke-linecap:butt;stroke-linejoin:miter;stroke-opacity:1"
       d="m 8.7312501,18.658334 10e-8,-1.5875 H 6.0854168 l -1e-7,1.5875 h 0.5291666 l 1e-7,-1.058333 h 0.5291667 l -1e-7,1.058333 h 0.5291666 l 1e-7,-1.058333 h 0.5291668 l -1e-7,1.058333 z"
       id="path150"
       inkscape:connector-curvature="0"
       sodipodi:nodetypes="ccccccccccccc" />
    <path
       sodipodi:nodetypes="cccccccccccc"
       inkscape:connector-curvature="0"
       style="fill:#000000;stroke:none;stroke-width:0.26458332px;stroke-linecap:butt;stroke-linejoin:miter;stroke-opacity:1"
       d="m 8.9958338,17.335417 v 1.322917 h 1.5874992 v -1.322917 l -0.529166,-0.264583 v 0.264583 z m 0.5291666,0.529167 h 0.5291666 v 0.264583 H 9.5250004 Z"
       id="path152" />
    <path
       sodipodi:nodetypes="ccccccccc"
       inkscape:connector-curvature="0"
       id="path154"
       d="m 10.847917,17.070834 v 1.5875 h 0.529166 v -1.058333 h 0.529167 v 1.058333 h 0.529167 v -1.5875 z"
       style="fill:#000000;stroke:none;stroke-width:0.26458332px;stroke-linecap:butt;stroke-linejoin:miter;stroke-opacity:1" />
    <path
       style="fill:#000000;stroke:none;stroke-width:0.26458332px;stroke-linecap:butt;stroke-linejoin:miter;stroke-opacity:1"
       d="m 1.3229167,13.366667 h 9.5250003 l 0,-0.79375 H 1.3229163 l 4e-7,0.79375 v 0"
       id="path156"
       inkscape:connector-curvature="0"
       sodipodi:nodetypes="cccccc" />
    <path
       style="fill:#000000;stroke:none;stroke-width:0.26458332px;stroke-linecap:butt;stroke-linejoin:miter;stroke-opacity:1"
       d="m 1.322917,23.156249 1e-7,2.645834 h 1.0583334 l -1e-7,-1.5875 h 0.5291667 l 10e-8,1.5875 h 1.0583333 l -1e-7,-1.5875 h 0.5291667 l 1e-7,1.5875 h 1.0583333 l -1e-7,-2.645834 H 1.322917 v 0"
       id="path158"
       inkscape:connector-curvature="0"
       sodipodi:nodetypes="cccccccccccccc" />
    <path
       sodipodi:nodetypes="cccccccccccccc"
       inkscape:connector-curvature="0"
       style="fill:#000000;stroke:none;stroke-width:0.26458332px;stroke-linecap:butt;stroke-linejoin:miter;stroke-opacity:1"
       d="m 5.8208338,23.15625 -1e-7,2.645792 H 6.879167 l 1e-7,-0.529126 h 1.0583334 l -10e-8,0.529126 h 1.0583333 l 10e-8,-2.645792 z m 1.0583333,0.793749 h 1.0583334 v 0.529167 H 6.8791671 Z"
       id="path160" />
    <path
       sodipodi:nodetypes="cccccccccccc"
       inkscape:connector-curvature="0"
       style="fill:#000000;stroke:none;stroke-width:0.26458332px;stroke-linecap:butt;stroke-linejoin:miter;stroke-opacity:1"
       d="m 11.377084,21.833333 -10e-7,1.322876 H 9.260417 v 2.645833 h 3.174999 l 10e-7,-3.968709 z m -1.058334,2.381209 h 1.058333 v 0.529167 H 10.31875 Z"
       id="path162" />
    <path
       style="fill:#000000;stroke:none;stroke-width:0.26458332px;stroke-linecap:butt;stroke-linejoin:miter;stroke-opacity:1"
       d="m 1.3229167,26.595833 6e-7,1.322917 h 2.6458334 l -6e-7,-1.322917 H 3.4395835 l 6e-7,0.79375 H 2.9104174 l -6e-7,-0.79375 H 2.3812502 l 6e-7,0.79375 H 1.852084 l -6e-7,-0.79375 z"
       id="path164"
       inkscape:connector-curvature="0"
       sodipodi:nodetypes="ccccccccccccc" />
    <path
       style="fill:#000000;stroke:none;stroke-width:0.26458332px;stroke-linecap:butt;stroke-linejoin:miter;stroke-opacity:1"
       d="m 4.2333333,26.595792 6e-7,1.322958 h 1.5875 l -6e-7,-1.322958 z M 4.7625,27.124959 h 0.5291667 l 6e-7,0.264624 H 4.7625006 Z"
       id="path166"
       inkscape:connector-curvature="0"
       sodipodi:nodetypes="cccccccccc" />
    <path
       sodipodi:nodetypes="ccccccccccccc"
       inkscape:connector-curvature="0"
       id="path168"
       d="m 8.7312507,27.91875 -5e-7,-1.322917 H 6.0854168 l 5e-7,1.322917 h 0.5291666 l -5e-7,-0.79375 h 0.5291667 l 5e-7,0.79375 h 0.5291666 l -5e-7,-0.79375 h 0.5291668 l 5e-7,0.79375 z"
       style="fill:#000000;stroke:none;stroke-width:0.26458332px;stroke-linecap:butt;stroke-linejoin:miter;stroke-opacity:1" />
    <path
       id="path170"
       d="M 8.9958344,26.595833 V 27.91875 H 10.583334 V 26.595833 L 10.054168,26.33125 v 0.264583 z M 9.525001,27.125 h 0.529167 v 0.264583 H 9.525001 Z"
       style="fill:#000000;stroke:none;stroke-width:0.26458332px;stroke-linecap:butt;stroke-linejoin:miter;stroke-opacity:1"
       inkscape:connector-curvature="0"
       sodipodi:nodetypes="cccccccccccc" />
    <path
       style="fill:#000000;stroke:none;stroke-width:0.26458332px;stroke-linecap:butt;stroke-linejoin:miter;stroke-opacity:1"
       d="m 10.847918,26.595833 v 1.322917 h 0.529166 V 27.125 h 0.529167 v 0.79375 h 0.529167 v -1.322917 z"
       id="path172"
       inkscape:connector-curvature="0"
       sodipodi:nodetypes="ccccccccc" />
    <path
       sodipodi:nodetypes="cccccc"
       inkscape:connector-curvature="0"
       id="path174"
       d="m 1.3229171,22.627083 h 9.5249999 v -0.79375 H 1.3229167 l 4e-7,0.79375 v 0"
       style="fill:#000000;stroke:none;stroke-width:0.26458332px;stroke-linecap:butt;stroke-linejoin:miter;stroke-opacity:1" />
  </g>
</svg>
